<?xml version="1.0" encoding="UTF-8"?>
<svg version="1.1" xmlns="http://www.w3.org/2000/svg" width="512" height="512">
<path d="M0 0 C1.9338266 -0.00573832 1.9338266 -0.00573832 3.9067204 -0.01159257 C7.45583683 -0.02180974 11.00485153 -0.01970691 14.55397606 -0.01541197 C18.39324386 -0.01293321 22.23248788 -0.02197318 26.07174683 -0.02944946 C33.58241514 -0.0421672 41.09304766 -0.04399377 48.60372493 -0.0416492 C54.71270105 -0.0398624 60.82166635 -0.04162343 66.93064117 -0.04587364 C67.80183409 -0.04646883 68.67302701 -0.04706402 69.57061972 -0.04767724 C71.34076888 -0.04888907 73.11091803 -0.0501032 74.88106719 -0.05131962 C91.46410024 -0.06218415 108.04711294 -0.06003797 124.63014713 -0.05393478 C139.77687804 -0.04876805 154.92354458 -0.06001655 170.07026276 -0.07903299 C185.64791046 -0.09843949 201.22552775 -0.10666238 216.80318761 -0.10290974 C225.53878348 -0.10100178 234.27432461 -0.10344561 243.00991058 -0.11762428 C250.44774734 -0.12957504 257.88549565 -0.13090183 265.32333371 -0.11883412 C269.11257452 -0.1129709 272.90165386 -0.11177441 276.69088364 -0.12383652 C305.08196584 -0.20810819 327.07048066 2.07568035 348.53155518 22.57319641 C362.3449911 36.8392093 369.41495196 54.79687626 369.21905518 74.57319641 C369.21075684 75.66479065 369.2024585 76.75638489 369.19390869 77.88105774 C368.74442917 99.46087345 359.60996728 116.74981926 344.41436768 131.56929016 C339.71746802 135.6257035 334.57606765 138.65861759 329.09405518 141.51069641 C328.49568848 141.82820862 327.89732178 142.14572083 327.28082275 142.47285461 C325.14977332 143.52196542 322.99346068 144.3931363 320.78155518 145.26069641 C319.90980872 145.60336296 319.03806227 145.94602951 318.13989925 146.2990799 C304.82782492 150.63650217 290.89128034 149.83147883 277.05227292 149.78359509 C273.14419075 149.77446843 269.23617773 149.78855175 265.32810974 149.79951477 C257.69061079 149.81722457 250.05326981 149.81349369 242.41576488 149.80186421 C236.20343239 149.79279964 229.9911439 149.7916189 223.77880669 149.79595947 C222.44828508 149.79687887 222.44828508 149.79687887 221.09088425 149.79781684 C219.28844495 149.79909586 217.48600566 149.80039271 215.68356638 149.80170721 C198.81432213 149.81309109 181.94516507 149.80003414 165.07593512 149.77850574 C150.62986443 149.76063986 136.18392237 149.76373893 121.737854 149.78218079 C104.92705704 149.80363168 88.11633637 149.81198941 71.30552763 149.79973173 C69.50972491 149.79845765 67.71392217 149.79720017 65.91811943 149.79595947 C65.03475213 149.79534237 64.15138484 149.79472527 63.24124883 149.79408947 C57.04342856 149.79064897 50.84565704 149.7964368 44.64784431 149.80587769 C37.08457016 149.81714621 29.52146186 149.81395649 21.95820648 149.79275471 C18.10599547 149.78230862 14.25406005 149.77801092 10.40185165 149.79135132 C-17.61569879 149.88036699 -39.31513053 146.5957748 -60.16766357 126.37007141 C-76.5262872 108.87185827 -80.08081345 88.38900582 -79.38885498 65.27827454 C-78.44498361 48.56444915 -69.82905464 33.85008025 -58.21844482 22.26069641 C-57.66801514 21.63936829 -57.11758545 21.01804016 -56.55047607 20.37788391 C-42.1540621 4.52405518 -20.47367952 -0.0651721 0 0 Z M144.78155518 56.26069641 C138.83777325 64.80044992 137.43669296 73.28566346 139.17218018 83.57710266 C141.24338184 90.14918487 146.23993543 95.92950367 151.94171143 99.68257141 C157.11315253 102.35045504 161.60349958 103.38297413 167.43429565 103.40786743 C168.58649597 103.41502274 169.73869629 103.42217804 170.92581177 103.42955017 C172.18612213 103.43223907 173.4464325 103.43492798 174.74493408 103.43769836 C176.08888931 103.44396667 177.43284281 103.45061379 178.77679443 103.45761108 C183.18722333 103.47861508 187.59765241 103.48901192 192.00811768 103.49897766 C193.52967725 103.50302697 195.05123665 103.50714394 196.57279587 103.51132774 C203.72433787 103.53037354 210.87586961 103.54460431 218.02743208 103.55293971 C226.26590724 103.56270191 234.50411298 103.58899718 242.74249327 103.62944061 C249.120599 103.65967024 255.49862782 103.67441516 261.87680376 103.67772073 C265.68115035 103.68006394 269.48520896 103.6889283 273.2894783 103.7141819 C276.87320917 103.73758729 280.45646498 103.74164648 284.04025269 103.73142052 C285.96825247 103.7306948 287.89622881 103.74969923 289.8241272 103.76948547 C299.5744731 103.71157468 307.93770878 101.82838349 315.24639893 95.03804016 C321.18364344 88.16413111 323.18159448 81.11224379 323.05108643 72.20210266 C322.31768443 64.19845484 318.84389546 58.34870189 313.00030518 52.95210266 C306.46760468 47.97206866 299.31789003 46.14533035 291.19837952 46.12025452 C290.08687531 46.11454437 288.97537109 46.10883423 287.83018494 46.10295105 C286.62022354 46.10183319 285.41026215 46.10071533 284.16363525 46.0995636 C282.88174316 46.09459869 281.59985107 46.08963379 280.27911377 46.08451843 C276.76852029 46.07143186 273.2579459 46.06495656 269.74733186 46.06050777 C267.55033442 46.05757041 265.35334212 46.05346431 263.15634727 46.0490036 C256.27177354 46.03533722 249.38721164 46.02566692 242.50262529 46.02180171 C234.57549925 46.01732586 226.64854607 45.99979645 218.72147256 45.97080112 C212.58113533 45.94912687 206.44084653 45.93909434 200.30047148 45.93776059 C196.63927565 45.93671647 192.97824248 45.93089327 189.31708717 45.91294098 C185.2267688 45.89327385 181.13680834 45.89777204 177.04644775 45.9042511 C175.84660751 45.89503632 174.64676727 45.88582153 173.41056824 45.87632751 C162.12881135 45.93214632 152.84501085 47.95867696 144.78155518 56.26069641 Z " fill="#038CF2" transform="translate(111.21844482421875,287.7393035888672)"/>
<path d="M0 0 C1.31130463 -0.00453111 2.62260926 -0.00906223 3.9736504 -0.01373065 C7.59375882 -0.02590718 11.21377446 -0.02570652 14.83389866 -0.02334189 C18.74616283 -0.02293236 22.65839778 -0.03398603 26.57064819 -0.04345703 C34.22897658 -0.06003963 41.88727417 -0.06556537 49.54561902 -0.06668179 C55.77524884 -0.06763375 62.00486854 -0.07175145 68.23449516 -0.07808304 C85.9189605 -0.09568951 103.60340161 -0.10492307 121.28787578 -0.10342209 C122.71665634 -0.10330222 122.71665634 -0.10330222 124.17430115 -0.10317993 C125.12799262 -0.10309817 126.0816841 -0.10301641 127.06427532 -0.10293217 C142.5079343 -0.10211988 157.9514956 -0.12124469 173.39512635 -0.14945666 C189.27442973 -0.17823418 205.15368556 -0.19199422 221.03301567 -0.19026911 C229.93916223 -0.1896068 238.84520644 -0.19502921 247.75132942 -0.21662521 C255.33669154 -0.23490139 262.92190495 -0.23913195 270.50727964 -0.22560637 C274.37161195 -0.21910844 278.23565951 -0.21884317 282.09996414 -0.23631287 C310.15605343 -0.35528307 331.86694352 2.90251924 352.75022888 23.15805054 C366.19659372 37.54112843 371.95993108 54.96424166 372.05101013 74.32992554 C372.08194763 75.93384155 372.08194763 75.93384155 372.11351013 77.57015991 C372.16540795 88.3065217 370.04988593 97.93872823 365.05101013 107.45492554 C364.69957947 108.1363562 364.3481488 108.81778687 363.98606873 109.51986694 C361.12454367 114.92955492 357.93356587 119.73356789 353.80101013 124.26742554 C353.07397888 125.08598022 352.34694763 125.90453491 351.59788513 126.74789429 C338.79098855 140.40169855 321.42471075 148.31822988 302.73237467 149.45385611 C299.34765557 149.52632542 295.96804759 149.53889866 292.58256531 149.52812195 C290.64873871 149.53386027 290.64873871 149.53386027 288.67584491 149.53971452 C285.12672848 149.54993169 281.57771378 149.54782886 278.02858925 149.54353392 C274.18932145 149.54105516 270.35007743 149.55009513 266.51081848 149.55757141 C259.00015017 149.57028915 251.48951765 149.57211572 243.97884038 149.56977115 C237.86986426 149.56798435 231.76089896 149.56974538 225.65192413 149.57399559 C224.78073121 149.57459078 223.90953829 149.57518597 223.01194559 149.57579919 C221.24179643 149.57701101 219.47164728 149.57822515 217.70149812 149.57944157 C201.11846507 149.59030609 184.53545237 149.58815992 167.95241818 149.58205672 C152.80568727 149.57689 137.65902073 149.5881385 122.51230255 149.60715494 C106.93465485 149.62656144 91.35703756 149.63478432 75.7793777 149.63103169 C67.04378182 149.62912372 58.3082407 149.63156756 49.57265472 149.64574623 C42.13481797 149.65769699 34.69706965 149.65902378 27.2592316 149.64695606 C23.46999079 149.64109285 19.68091145 149.63989636 15.89168167 149.65195847 C-12.49940053 149.73623014 -34.48791536 147.4524416 -55.94898987 126.95492554 C-69.7624258 112.68891265 -76.83238665 94.73124569 -76.63648987 74.95492554 C-76.62819153 73.8633313 -76.61989319 72.77173706 -76.61134338 71.64706421 C-76.18811085 51.32738429 -68.09558345 34.69970063 -54.11695862 20.09164429 C-39.29194345 5.92674111 -20.1121476 -0.05123679 0 0 Z M35.80101013 57.26742554 C30.95558434 64.90774911 29.7961806 72.2929186 30.80101013 81.26742554 C33.13346724 88.7366298 36.86428621 94.14119976 43.06663513 98.86508179 C50.5257291 102.69053141 57.91485274 103.70907204 66.19944763 103.64837646 C67.197323 103.65305644 68.19519836 103.65773641 69.22331238 103.6625582 C72.54101665 103.67444969 75.85830337 103.66507376 79.17601013 103.65560913 C81.56517273 103.65967742 83.95433344 103.66502074 86.3434906 103.67153931 C92.14347686 103.68377268 97.94333219 103.68201822 103.74332237 103.67330138 C108.45982696 103.66650821 113.17629893 103.66561515 117.89280701 103.66887283 C118.56575302 103.66933253 119.23869904 103.66979223 119.93203735 103.67026586 C121.29939271 103.6712251 122.66674806 103.67219774 124.03410339 103.67318363 C136.83619145 103.68172492 149.6382149 103.67192325 162.44029236 103.65578254 C173.40952228 103.64238049 184.37865693 103.64470894 195.34788513 103.65853882 C208.10620185 103.67461698 220.86446204 103.68090106 233.62278748 103.67170203 C234.98492939 103.67074645 236.34707132 103.66980333 237.70921326 103.66887283 C238.37929916 103.66841001 239.04938507 103.66794718 239.73977661 103.66747033 C244.44705062 103.66488714 249.15428858 103.66923691 253.86155701 103.67631149 C260.20474257 103.68499407 266.54774868 103.67893539 272.89091492 103.66162872 C275.21525271 103.65767082 277.53960567 103.65878595 279.86393738 103.66541672 C283.04368455 103.67364965 286.2228615 103.66328911 289.40257263 103.64837646 C290.77273529 103.65841471 290.77273529 103.65841471 292.170578 103.66865575 C301.81066611 103.58133673 310.53992453 101.35843294 317.61351013 94.51351929 C323.27741778 88.4838176 325.86549598 83.18033363 326.23851013 74.89242554 C325.98081699 66.80310171 323.09595437 59.74137315 317.57835388 53.80258179 C312.015536 48.99777425 305.80349327 46.15075805 298.44802666 46.13320446 C297.57886395 46.12874662 296.70970125 46.12428877 295.81420028 46.11969584 C294.38863994 46.11997239 294.38863994 46.11997239 292.9342804 46.12025452 C291.92111382 46.11657783 290.90794724 46.11290114 289.86407864 46.10911304 C286.45877336 46.09807325 283.0534986 46.09423184 279.6481781 46.09042358 C277.21064151 46.08415915 274.77310587 46.07751237 272.33557129 46.07051086 C265.01343663 46.05128269 257.69130449 46.04068241 250.36915225 46.03178307 C246.91862281 46.02739704 243.46809491 46.02203103 240.01756668 46.0167942 C228.54301459 45.99978348 217.06846344 45.98529024 205.59390068 45.97804546 C202.61736424 45.97613566 199.6408278 45.97421531 196.66429138 45.97225952 C195.92451341 45.97177578 195.18473545 45.97129204 194.42253996 45.97079364 C182.44379526 45.96249675 170.46515053 45.93716493 158.48644947 45.90467884 C146.1804375 45.87157795 133.87447628 45.85359396 121.56841958 45.85040122 C114.66216145 45.84823889 107.7560491 45.83953095 100.84983444 45.81394005 C94.35079631 45.78991316 87.85194907 45.78642639 81.35287285 45.79670143 C78.97047618 45.7971969 76.58806662 45.79087339 74.20570946 45.77714539 C70.94670732 45.75942003 67.68864508 45.76653665 64.42964172 45.77967834 C63.49265249 45.7687091 62.55566326 45.75773985 61.59028041 45.74643821 C51.34825385 45.84576553 42.58491203 49.49648941 35.80101013 57.26742554 Z " fill="#038CF2" transform="translate(108.19898986816406,74.73257446289063)"/>
</svg>
